# xmcd
#
# Track frame offsets: 
#        150
#        19431
#        37959
#        55704
#        77416
#        96305
#        118520
#        135856
#        152553
#        171803
#        188730
#
# Disc length: 2948 seconds
#
# Revision: 0
# Processed by: cddbd v1.5.2PL0 Copyright (c) Steve Scherf et al.
# Submitted via: ExactAudioCopy v0.99pb5
#
DISCID=7c0b820b
DTITLE=Toni Green - More Love
DYEAR=2005
DGENRE=Soul
TTITLE0=I Am Ready
TTITLE1=Angel
TTITLE2=More Love
TTITLE3=Best Woman
TTITLE4=Hot
TTITLE5=Free
TTITLE6=Bou Yow
TTITLE7=Mr. Wonderful
TTITLE8=Nothing From Nothing
TTITLE9=Bop
TTITLE10=Free (Part 2)
EXTD=
EXTT0=
EXTT1=
EXTT2=
EXTT3=
EXTT4=
EXTT5=
EXTT6=
EXTT7=
EXTT8=
EXTT9=
EXTT10=
PLAYORDER=
